<?xml version="1.0" encoding="iso-8859-1"?>
<svg version="1.1" id="Layer_1"
	xmlns="http://www.w3.org/2000/svg"
	xmlns:xlink="http://www.w3.org/1999/xlink" x="0px" y="0px" viewBox="0 0 512 512" style="enable-background:new 0 0 512 512;" xml:space="preserve">
	<g>
		<g>
			<path d="M506.318,80.895c-5.99-23.295-18.508-42.943-36.197-56.823C449.764,8.098,423.371,0,391.674,0H120.326
			C88.63,0,62.236,8.098,41.879,24.072C24.189,37.951,11.672,57.6,5.682,80.895c-11.016,42.835,1.867,91.955,28.355,113.99V512
			h443.927V194.886C504.452,172.851,517.334,123.73,506.318,80.895z M472.943,141.114c-4.306,14.637-11.681,26.021-19.728,30.453
			l-8.642,4.759v302.283H67.429V176.326l-8.642-4.759c-8.047-4.433-15.422-15.816-19.728-30.453
			c-4.878-16.582-5.257-35.501-1.039-51.902c4.145-16.121,12.607-29.562,24.469-38.87c14.335-11.247,33.793-16.951,57.836-16.951
			h271.349c24.042,0,43.501,5.703,57.837,16.951c11.862,9.307,20.323,22.748,24.469,38.87
			C478.2,105.613,477.821,124.532,472.943,141.114z"/>
		</g>
	</g>
	<g>
	</g>
	<g>
	</g>
	<g>
	</g>
	<g>
	</g>
	<g>
	</g>
	<g>
	</g>
	<g>
	</g>
	<g>
	</g>
	<g>
	</g>
	<g>
	</g>
	<g>
	</g>
	<g>
	</g>
	<g>
	</g>
	<g>
	</g>
	<g>
	</g>
</svg>